# xmcd
# Copyright (C) 1995-1998 Ti Kan
#
# Track frame offsets:
#       150
#       15000
#       35625
#       55275
#       69813
#       83463
#       93363
#       110388
#       124188
#       142488
#       160638
#       180738
#       197292
#       214692
#       229842
#       246079
#       263766
#
# Disc length: 3754 seconds
#
# Revision: 0
# Processed by: cddbd v1.5.2PL0 Copyright (c) Steve Scherf et al.
# Submitted via: CD-Transfer v1.0
#
DISCID=d80ea811
DTITLE=Various Artist - 
DYEAR=08
DGENRE=
TTITLE0=Brookes Brothers Ft. Furlonge Tear You Down
TTITLE1=Chamillionaire Ft. Ludacris Creepin' (Solo)
TTITLE2=Chase and Status Ft. Takura Streetlife
TTITLE3=Falk, Christian Ft. Robyn and Ola Salo Dream On
TTITLE4=Enya White Is In The Winter Night
TTITLE5=Apple, Fiona Frosty The Snowman
TTITLE6=Fireman, The Sing The Changes
TTITLE7=Giorgia Per Fare A Nemo Di Te
TTITLE8=Gym Class Hero Ft. Estelle Guilty As Charged (Clean)
TTITLE9=Grandi, Irene Bianco Natale
TTITLE10=Legend, John This Time
TTITLE11=Nickelback Something In Your Mouth
TTITLE12=Plies Ft. Chris J Put It On Ya
TTITLE13=Real Booty Babes, The I Kissed A Girl
TTITLE14=Rehab Last Tattoo (Clean)
TTITLE15=Secondhand Serenade Your Call
TTITLE16=Slut If I Had A Heart
EXTD=
EXTT0=
EXTT1=
EXTT2=
EXTT3=
EXTT4=
EXTT5=
EXTT6=
EXTT7=
EXTT8=
EXTT9=
EXTT10=
EXTT11=
EXTT12=
EXTT13=
EXTT14=
EXTT15=
EXTT16=
PLAYORDER=
